<svg width="24" height="24" viewBox="0 0 24 24" fill="none" xmlns="http://www.w3.org/2000/svg">
<path d="M18 4.47997C16.4087 2.88867 14.2504 1.99469 12 1.99469C9.74957 1.99469 7.5913 2.88867 6.00001 4.47997C4.40871 6.07127 3.51472 8.22954 3.51472 10.48C3.51472 12.7304 4.40871 14.8887 6.00001 16.48L11.27 21.76C11.363 21.8537 11.4736 21.9281 11.5954 21.9789C11.7173 22.0296 11.848 22.0558 11.98 22.0558C12.112 22.0558 12.2427 22.0296 12.3646 21.9789C12.4864 21.9281 12.597 21.8537 12.69 21.76L18 16.43C19.5847 14.8453 20.4749 12.696 20.4749 10.455C20.4749 8.21392 19.5847 6.06465 18 4.47997ZM16.57 15L12 19.59L7.43001 15C6.52715 14.0963 5.91248 12.9452 5.6637 11.6923C5.41492 10.4393 5.54319 9.14072 6.03231 7.96065C6.52143 6.78059 7.34942 5.77202 8.41164 5.06245C9.47385 4.35288 10.7226 3.97415 12 3.97415C13.2774 3.97415 14.5262 4.35288 15.5884 5.06245C16.6506 5.77202 17.4786 6.78059 17.9677 7.96065C18.4568 9.14072 18.5851 10.4393 18.3363 11.6923C18.0875 12.9452 17.4729 14.0963 16.57 15ZM9.00001 7.40997C8.19272 8.21974 7.7394 9.31654 7.7394 10.46C7.7394 11.6034 8.19272 12.7002 9.00001 13.51C9.59977 14.1108 10.3636 14.5211 11.1957 14.6894C12.0277 14.8577 12.891 14.7766 13.6771 14.4561C14.4632 14.1357 15.1372 13.5903 15.6145 12.8882C16.0918 12.1862 16.3511 11.3588 16.36 10.51C16.3645 9.94318 16.2553 9.38123 16.0389 8.85736C15.8225 8.33349 15.5032 7.85833 15.1 7.45997C14.7037 7.05455 14.2311 6.73151 13.7094 6.50944C13.1878 6.28736 12.6273 6.17065 12.0604 6.166C11.4935 6.16135 10.9312 6.26887 10.406 6.48236C9.88075 6.69585 9.40293 7.0111 9.00001 7.40997ZM13.69 12.09C13.311 12.4747 12.8102 12.7159 12.2731 12.7722C11.736 12.8286 11.1961 12.6966 10.7455 12.3989C10.295 12.1012 9.9618 11.6562 9.80301 11.1401C9.64422 10.6239 9.66966 10.0686 9.87496 9.56913C10.0803 9.06964 10.4527 8.65699 10.9286 8.40171C11.4045 8.14643 11.9543 8.06438 12.4839 8.16959C13.0136 8.2748 13.4903 8.56073 13.8325 8.9785C14.1747 9.39627 14.3612 9.91994 14.36 10.46C14.3455 11.0772 14.0865 11.6635 13.64 12.09H13.69Z" fill="#BDBDBD"/>
</svg>
