<svg width="40" height="40" viewBox="0 0 40 40" fill="none" xmlns="http://www.w3.org/2000/svg">
<path d="M35.1167 28.05L31.6667 24.5167C30.9246 23.8112 29.9885 23.3439 28.9787 23.1746C27.9689 23.0053 26.9316 23.1418 26 23.5667L24.5 22.0667C26.2676 19.7049 27.0748 16.7611 26.7592 13.8281C26.4436 10.895 25.0286 8.19037 22.7991 6.25866C20.5695 4.32695 17.6909 3.31159 14.7428 3.41697C11.7947 3.52235 8.99592 4.74064 6.90995 6.82661C4.82399 8.91257 3.60569 11.7113 3.50031 14.6594C3.39493 17.6076 4.4103 20.4861 6.342 22.7157C8.27371 24.9453 10.9783 26.3603 13.9114 26.6759C16.8445 26.9915 19.7882 26.1842 22.15 24.4167L23.6333 25.9C23.1585 26.8327 22.9883 27.8909 23.1468 28.9255C23.3053 29.9601 23.7844 30.9188 24.5167 31.6667L28.05 35.2C28.9875 36.1363 30.2583 36.6623 31.5833 36.6623C32.9083 36.6623 34.1792 36.1363 35.1167 35.2C35.5929 34.7343 35.9713 34.1782 36.2296 33.5643C36.488 32.9504 36.621 32.291 36.621 31.625C36.621 30.9589 36.488 30.2996 36.2296 29.6857C35.9713 29.0718 35.5929 28.5156 35.1167 28.05ZM20.9833 20.9833C19.8171 22.1467 18.3322 22.9382 16.7162 23.2581C15.1003 23.5779 13.4258 23.4117 11.9043 22.7803C10.3829 22.149 9.0826 21.0808 8.16786 19.7109C7.25311 18.3409 6.7649 16.7306 6.7649 15.0833C6.7649 13.436 7.25311 11.8257 8.16786 10.4558C9.0826 9.08581 10.3829 8.0177 11.9043 7.38635C13.4258 6.755 15.1003 6.58874 16.7162 6.90858C18.3322 7.22842 19.8171 8.02 20.9833 9.18333C21.7594 9.95742 22.3751 10.877 22.7952 11.8894C23.2153 12.9019 23.4316 13.9872 23.4316 15.0833C23.4316 16.1794 23.2153 17.2648 22.7952 18.2772C22.3751 19.2896 21.7594 20.2092 20.9833 20.9833ZM32.7667 32.7667C32.6117 32.9229 32.4274 33.0469 32.2243 33.1315C32.0212 33.2161 31.8034 33.2597 31.5833 33.2597C31.3633 33.2597 31.1455 33.2161 30.9424 33.1315C30.7393 33.0469 30.5549 32.9229 30.4 32.7667L26.8667 29.2333C26.7105 29.0784 26.5865 28.8941 26.5019 28.691C26.4172 28.4879 26.3737 28.27 26.3737 28.05C26.3737 27.83 26.4172 27.6121 26.5019 27.409C26.5865 27.2059 26.7105 27.0216 26.8667 26.8667C27.0216 26.7104 27.2059 26.5865 27.409 26.5018C27.6121 26.4172 27.83 26.3737 28.05 26.3737C28.27 26.3737 28.4879 26.4172 28.691 26.5018C28.8941 26.5865 29.0784 26.7104 29.2333 26.8667L32.7667 30.4C32.9229 30.5549 33.0469 30.7393 33.1315 30.9424C33.2161 31.1455 33.2597 31.3633 33.2597 31.5833C33.2597 31.8033 33.2161 32.0212 33.1315 32.2243C33.0469 32.4274 32.9229 32.6117 32.7667 32.7667Z" fill="white"/>
</svg>
