<svg width="130" height="26" viewBox="0 0 130 26" fill="none" xmlns="http://www.w3.org/2000/svg">
<circle cx="9.63836" cy="9.63836" r="9.63836" fill="#82CDE5"/>
<path d="M7.3252 25.5626H16.2025C22.4247 25.5626 26.6891 21.9419 26.6891 16.1757C26.6891 10.4094 22.4247 6.78874 16.2025 6.78874H7.3252V25.5626ZM12.6355 21.3251V11.0263H15.988C19.1795 11.0263 21.3251 12.9305 21.3251 16.1757C21.3251 19.4209 19.1795 21.3251 15.988 21.3251H12.6355Z" fill="#003458"/>
<path d="M41.3641 25.5626H47.0499L43.0001 19.6622C45.3334 18.5358 46.6744 16.4975 46.6744 13.7351C46.6744 9.4439 43.456 6.78874 38.3335 6.78874H29.7511V25.5626H35.0614V20.5741H37.958L41.3641 25.5626ZM41.3105 13.7351C41.3105 15.4515 40.2108 16.4707 38.0116 16.4707H35.0614V10.9726H38.0116C40.2108 10.9726 41.3105 11.9918 41.3105 13.7351Z" fill="#003458"/>
<path d="M55.1289 21.4592V18.0262H63.4699V14.0569H55.1289V10.8922H64.5963V6.78874H49.8722V25.5626H64.945V21.4592H55.1289Z" fill="#003458"/>
<path d="M82.2135 25.5626H87.7384L79.4243 6.78874H74.1944L65.9071 25.5626H71.3247L72.7998 21.9151H80.7385L82.2135 25.5626ZM74.3553 17.9994L76.7691 11.9918L79.1829 17.9994H74.3553Z" fill="#003458"/>
<path d="M111.343 25.5626L111.29 6.78874H106.918L100.481 17.6239L93.8837 6.78874H89.5121V25.5626H94.4201V15.8806L99.2208 23.712H101.581L106.409 15.6124L106.462 25.5626H111.343Z" fill="#003458"/>
<path d="M120.793 12.1527H122.083V8.12468H123.652V6.97059H119.216V8.12468H120.793V12.1527Z" fill="#003458"/>
<path d="M124.433 12.1527H125.723V9.15053L127.217 11.8509L128.71 9.15053V12.1527H130V6.97059H128.71L127.217 9.671L125.723 6.97059H124.433V12.1527Z" fill="#003458"/>
</svg>
